<svg xmlns="http://www.w3.org/2000/svg" xmlns:xlink="http://www.w3.org/1999/xlink" fill="none" version="1.1" width="16" height="16" viewBox="0 0 16 16"><g><g><path d="M11.5,5C11.5,6.933,9.933,8.5,8,8.5C6.067,8.5,4.5,6.933,4.5,5C4.5,3.067,6.067,1.5,8,1.5C9.933,1.5,11.5,3.067,11.5,5ZM13.9631,10.85277C14.297,11.01223,14.5,11.35466,14.5,11.7246C14.5,11.7246,14.5,14,14.5,14C14.5,14.2761,14.2761,14.5,14,14.5C14,14.5,2.000001,14.5,2.000001,14.5C1.723859,14.5,1.5,14.2761,1.5,14C1.5,14,1.5,11.7246,1.5,11.7246C1.5,11.35466,1.703016,11.01223,2.036864,10.85277C3.8494,9.98708,5.86651,9.5,8,9.5C10.13349,9.5,12.1506,9.98708,13.9631,10.85277Z" fill="#333333" fill-opacity="1"/></g></g></svg>