<svg xmlns="http://www.w3.org/2000/svg" xmlns:xlink="http://www.w3.org/1999/xlink" fill="none" version="1.1" width="40" height="40" viewBox="0 0 40 40"><g><g><g><path d="M2.60091,0L21.25,0L32.9573,12.002L32.9573,37.334C32.9573,38.806,31.7926,40,30.3564,40L2.60091,40C1.16442,40,3.97364e-7,38.8064,0,37.334L0,2.66602C0,1.19402,1.16481,0,2.60091,0Z" fill="#EEEEEE" fill-opacity="1"/></g></g><g><g><path d="M21.25,0L32.9574,12L23.85099,12C22.4145,12,21.25,10.8064,21.25,9.334L21.25,0Z" fill="#D3D3D3" fill-opacity="1"/></g></g><g><rect x="5" y="18.333335876464844" width="35" height="15" rx="1" fill="#0288D1" fill-opacity="1"/></g><g><path d="M7.507053375244141,26.15594094482422Q7.507053375244141,23.85125094482422,8.518773375244141,22.862968944824217Q9.534393375244141,21.87078094482422,11.456273375244141,21.87078094482422Q12.499243375244141,21.87078094482422,13.31564337524414,22.12468694482422L13.31564337524414,23.335620944824218Q12.510963375244142,23.04656094482422,11.51486337524414,23.04656094482422Q10.612523375244141,23.04656094482422,10.050023375244141,23.34344094482422Q9.487523375244141,23.636400944824217,9.21017337524414,24.316090944824218Q8.93283337524414,24.991870944824218,8.93283337524414,26.14422094482422Q8.93283337524414,27.366870944824218,9.19846337524414,28.03875094482422Q9.46408337524414,28.710620944824218,9.99533337524414,28.97625094482422Q10.530493375244141,29.241870944824218,11.42893337524414,29.241870944824218Q11.99533337524414,29.241870944824218,12.46017337524414,29.16375094482422Q12.92893337524414,29.085620944824218,13.40939337524414,28.91766094482422L13.40939337524414,30.093440944824216Q13.02658337524414,30.249690944824216,12.499243375244141,30.343440944824216Q11.97189337524414,30.441090944824218,11.38205337524414,30.441090944824218Q10.124243375244141,30.441090944824218,9.280493375244141,30.073900944824217Q8.44064737524414,29.70672094482422,7.971897375244141,28.773120944824218Q7.507053375244141,27.835620944824218,7.507053375244141,26.15594094482422ZM17.550353375244143,27.08000094482422L17.33436337524414,27.08000094482422L16.30236337524414,27.08000094482422L16.30236337524414,30.32000094482422L14.95836337524414,30.32000094482422L14.95836337524414,21.99199994482422L17.33436337524414,21.99199994482422Q18.498353375244143,21.99199994482422,19.18835337524414,22.237999944824217Q19.87835337524414,22.48399894482422,20.20235337524414,23.03000094482422Q20.526353375244142,23.57600094482422,20.526353375244142,24.51200094482422Q20.526353375244142,25.55600094482422,20.12435337524414,26.13200094482422Q19.72235337524414,26.70800094482422,18.870353375244143,26.92400094482422L21.306353375244143,30.32000094482422L19.72235337524414,30.32000094482422L17.550353375244143,27.08000094482422ZM17.16636337524414,26.02400094482422Q17.934353375244143,26.02400094482422,18.35435337524414,25.91000094482422Q18.77435337524414,25.79600094482422,18.97235337524414,25.47200094482422Q19.17035337524414,25.14800094482422,19.17035337524414,24.51200094482422Q19.17035337524414,23.93600094482422,18.97235337524414,23.636000944824218Q18.77435337524414,23.336000944824217,18.34835337524414,23.22200094482422Q17.922353375244143,23.10800094482422,17.16636337524414,23.10800094482422L16.30236337524414,23.10800094482422L16.30236337524414,26.02400094482422L17.16636337524414,26.02400094482422ZM22.32615337524414,27.60906094482422L22.32615337524414,21.991874944824218L23.66995337524414,21.991874944824218L23.66995337524414,27.378590944824218Q23.66995337524414,28.07781094482422,23.84965337524414,28.48406094482422Q24.029353375244142,28.89031094482422,24.44335337524414,29.07781094482422Q24.85745337524414,29.26531094482422,25.591853375244142,29.26531094482422Q26.34575337524414,29.26531094482422,26.76365337524414,29.07781094482422Q27.18555337524414,28.89031094482422,27.35355337524414,28.491870944824218Q27.52145337524414,28.08953094482422,27.52145337524414,27.378590944824218L27.52145337524414,21.991874944824218L28.85355337524414,21.991874944824218L28.85355337524414,27.60906094482422Q28.85355337524414,29.085620944824218,28.03715337524414,29.76531094482422Q27.22075337524414,30.441090944824218,25.58005337524414,30.441090944824218Q23.92385337524414,30.441090944824218,23.12305337524414,29.78875094482422Q22.32615337524414,29.13250094482422,22.32615337524414,27.60906094482422ZM33.451953375244145,21.991874944824218Q34.77225337524414,21.991874944824218,35.639453375244145,22.32781194482422Q36.51055337524414,22.663749944824218,36.99485337524414,23.57781094482422Q37.48315337524414,24.48797094482422,37.48315337524414,26.15594094482422Q37.48315337524414,28.43719094482422,36.44415337524414,29.378590944824218Q35.40505337524414,30.32000094482422,33.451953375244145,30.32000094482422L30.89335337524414,30.32000094482422L30.89335337524414,21.991874944824218L33.451953375244145,21.991874944824218ZM33.40115337524414,29.14422094482422Q34.74485337524414,29.14422094482422,35.41675337524414,28.48406094482422Q36.08865337524414,27.823900944824217,36.08865337524414,26.15594094482422Q36.08865337524414,24.96844094482422,35.764453375244145,24.30828094482422Q35.44415337524414,23.648120944824218,34.862053375244145,23.398120944824218Q34.28005337524414,23.14422094482422,33.40115337524414,23.14422094482422L32.237053375244145,23.14422094482422L32.237053375244145,29.14422094482422L33.40115337524414,29.14422094482422Z" fill="#FFFFFF" fill-opacity="1"/></g></g></svg>