<svg xmlns="http://www.w3.org/2000/svg" xmlns:xlink="http://www.w3.org/1999/xlink" fill="none" version="1.1" width="40" height="40" viewBox="0 0 40 40"><defs><clipPath id="master_svg0_816_042765"><rect x="0" y="0" width="40" height="40" rx="0"/></clipPath></defs><g clip-path="url(#master_svg0_816_042765)"><g><path d="M39.994,31L0,31L0,7.00762L37.018,7.00762C38.6641,7.00762,40,8.34618,40,9.995470000000001L40,31L39.994,31ZM24.9948,7.00762C24.9948,4.240880000000001,22.7583,2,19.997,2L0,2L0,7.00762L24.9948,7.00762Z" fill="#CE9F06" fill-opacity="1"/></g><g><path d="M5,25L5,10L35,10L35,25L5,25Z" fill="#FFFFFF" fill-opacity="1"/></g><g><path d="M40,34.922L40,15.4994C40,14.12145,38.8786,13,37.5007,13L2.49925,13C1.12138,13,0,14.12145,0,15.4994L0,34.916C0,36.6161,1.37787,38,3.08381,38L36.9222,38C38.6221,38.0059,40,36.622,40,34.922Z" fill="#FFCD2C" fill-opacity="1"/></g></g></svg>