<svg xmlns="http://www.w3.org/2000/svg" xmlns:xlink="http://www.w3.org/1999/xlink" fill="none" version="1.1" width="16" height="16" viewBox="0 0 16 16"><g><g><g><path d="M1.04036,0L8.5,0L13.1829,4.80078L13.1829,14.9336C13.1829,15.5224,12.717,16,12.1426,16L1.04036,16C0.465769,16,1.58946e-7,15.5226,0,14.9336L0,1.06641C0,0.477606,0.465922,0,1.04036,0Z" fill="#EEEEEE" fill-opacity="1"/></g></g><g><g><path d="M8.5,0L13.18295,4.8L9.5404,4.8C8.965802,4.8,8.5,4.32256,8.5,3.7336L8.5,0Z" fill="#D3D3D3" fill-opacity="1"/></g></g><g><rect x="2" y="7.333333492279053" width="14" height="6" rx="1" fill="#BA46C0" fill-opacity="1"/></g><g><path d="M3.4600000381469727,8.529999542236329L4.4250000381469725,8.529999542236329Q4.790000038146973,8.529999542236329,5.035000038146973,8.594999542236328Q5.280000038146973,8.659999542236328,5.427500038146973,8.794999542236328Q5.575000038146973,8.929999542236327,5.6350000381469725,9.139999542236328Q5.695000038146972,9.349999542236327,5.695000038146972,9.639999542236328Q5.695000038146972,9.944999542236328,5.622500038146972,10.159999542236328Q5.5500000381469725,10.374999542236328,5.397500038146973,10.509999542236327Q5.245000038146973,10.644999542236327,5.002500038146973,10.707499542236327Q4.7600000381469725,10.769999542236327,4.4250000381469725,10.769999542236327L3.910000038146973,10.769999542236327L3.910000038146973,11.999999542236328L3.4600000381469727,11.999999542236328L3.4600000381469727,8.529999542236329ZM4.3850000381469725,10.394999542236327Q4.625000038146973,10.394999542236327,4.790000038146973,10.359999542236327Q4.955000038146973,10.324999542236329,5.052500038146973,10.237499542236328Q5.150000038146972,10.149999542236328,5.192500038146973,10.004999542236328Q5.235000038146973,9.859999542236327,5.235000038146973,9.639999542236328Q5.235000038146973,9.439999542236329,5.192500038146973,9.302499542236328Q5.150000038146972,9.164999542236329,5.052500038146973,9.079999542236328Q4.955000038146973,8.994999542236329,4.790000038146973,8.957499542236327Q4.625000038146973,8.919999542236328,4.3850000381469725,8.919999542236328L3.910000038146973,8.919999542236328L3.910000038146973,10.394999542236327L4.3850000381469725,10.394999542236327ZM8.115000038146974,10.964999542236328L6.580000038146973,10.964999542236328L6.200000038146973,11.999999542236328L5.740000038146972,11.999999542236328L7.055000038146973,8.529999542236329L7.655000038146973,8.529999542236329L8.965000038146972,11.999999542236328L8.490000038146974,11.999999542236328L8.115000038146974,10.964999542236328ZM7.970000038146972,10.564999542236329L7.3850000381469725,8.949999542236329L7.325000038146973,8.949999542236329L6.730000038146972,10.564999542236329L7.970000038146972,10.564999542236329ZM10.905000038146973,12.049999542236328Q10.525000038146974,12.049999542236328,10.225000038146973,11.97499954223633Q9.925000038146973,11.899999542236328,9.715000038146972,11.702499542236328Q9.505000038146973,11.504999542236328,9.392500038146974,11.157499542236328Q9.280000038146973,10.809999542236328,9.280000038146973,10.264999542236328Q9.280000038146973,9.764999542236328,9.395000038146971,9.422499542236329Q9.510000038146973,9.079999542236328,9.725000038146973,8.869999542236329Q9.940000038146973,8.659999542236328,10.252500038146973,8.569999742236329Q10.565000038146973,8.479999542236328,10.955000038146974,8.479999542236328Q11.075000038146973,8.479999542236328,11.202500038146972,8.489999532236329Q11.330000038146974,8.499999542236328,11.450000038146973,8.517499642236329Q11.570000038146972,8.534999642236329,11.677500038146972,8.559999742236329Q11.785000038146972,8.584999542236329,11.860000038146973,8.614999542236328L11.860000038146973,9.014999542236328Q11.685000038146972,8.944999542236328,11.462500038146972,8.909999542236328Q11.240000038146974,8.874999542236328,10.975000038146973,8.874999542236328Q10.685000038146972,8.874999542236328,10.457500038146971,8.934999542236328Q10.230000038146972,8.994999542236329,10.072500038146973,9.149999542236328Q9.915000038146973,9.304999542236327,9.832500038146971,9.574999542236329Q9.750000038146972,9.844999542236328,9.750000038146972,10.264999542236328Q9.750000038146972,10.709999542236329,9.827500038146972,10.982499542236328Q9.905000038146973,11.254999542236328,10.060000038146972,11.404999542236329Q10.215000038146972,11.554999542236327,10.437500038146972,11.607499542236328Q10.660000038146972,11.659999542236328,10.955000038146974,11.659999542236328Q11.075000038146973,11.659999542236328,11.237500038146973,11.644999542236327Q11.400000038146974,11.629999542236328,11.520000038146973,11.594999542236328L11.520000038146973,10.519999542236327L10.825000038146973,10.519999542236327L10.825000038146973,10.139999542236328L11.950000038146973,10.139999542236328L11.950000038146973,11.904999542236329Q11.760000038146973,11.964999542236328,11.497500038146972,12.007499542236328Q11.235000038146973,12.049999542236328,10.905000038146973,12.049999542236328ZM14.860000038146973,11.594999542236328L14.860000038146973,11.999999542236328L12.805000038146973,11.999999542236328L12.805000038146973,8.529999542236329L14.735000038146973,8.529999542236329L14.735000038146973,8.929999542236327L13.255000038146973,8.929999542236327L13.255000038146973,10.004999542236328L14.635000038146973,10.004999542236328L14.635000038146973,10.384999542236327L13.255000038146973,10.384999542236327L13.255000038146973,11.594999542236328L14.860000038146973,11.594999542236328Z" fill="#FFFFFF" fill-opacity="1"/></g></g></svg>