<svg xmlns="http://www.w3.org/2000/svg" xmlns:xlink="http://www.w3.org/1999/xlink" fill="none" version="1.1" width="40" height="40" viewBox="0 0 40 40"><g><g><g><path d="M2.60091,0L21.25,0L32.9573,12.002L32.9573,37.334C32.9573,38.806,31.7926,40,30.3564,40L2.60091,40C1.16442,40,3.97364e-7,38.8064,0,37.334L0,2.66602C0,1.19402,1.16481,0,2.60091,0Z" fill="#EEEEEE" fill-opacity="1"/></g></g><g><g><path d="M21.25,0L32.9574,12L23.85099,12C22.4145,12,21.25,10.8064,21.25,9.334L21.25,0Z" fill="#D3D3D3" fill-opacity="1"/></g></g><g><rect x="5" y="18.33333396911621" width="35" height="15" rx="1" fill="#04A524" fill-opacity="1"/></g><g><path d="M8.353738784790039,30.23200035095215L9.745738784790039,30.23200035095215L9.745738784790039,26.88400035095215L11.07773878479004,26.88400035095215C12.99773878479004,26.88400035095215,14.413738784790038,25.996000350952148,14.413738784790038,24.07600035095215C14.413738784790038,22.07200035095215,12.99773878479004,21.388000350952147,11.02973878479004,21.388000350952147L8.353738784790039,21.388000350952147L8.353738784790039,30.23200035095215ZM9.745738784790039,25.75600035095215L9.745738784790039,22.516000350952147L10.89773878479004,22.516000350952147C12.30173878479004,22.516000350952147,13.033738784790039,22.900000350952148,13.033738784790039,24.07600035095215C13.033738784790039,25.21600035095215,12.34973878479004,25.75600035095215,10.957738784790038,25.75600035095215L9.745738784790039,25.75600035095215ZM17.52173878479004,25.55200035095215L17.52173878479004,22.516000350952147L18.85373878479004,22.516000350952147C20.125738784790038,22.516000350952147,20.83373878479004,22.888000350952147,20.83373878479004,23.95600035095215C20.83373878479004,25.02400035095215,20.125738784790038,25.55200035095215,18.85373878479004,25.55200035095215L17.52173878479004,25.55200035095215ZM20.95373878479004,30.23200035095215L22.52573878479004,30.23200035095215L20.36573878479004,26.48800035095215C21.48173878479004,26.14000035095215,22.21373878479004,25.324000350952147,22.21373878479004,23.95600035095215C22.21373878479004,22.036000350952147,20.84573878479004,21.388000350952147,19.02173878479004,21.388000350952147L16.12973878479004,21.388000350952147L16.12973878479004,30.23200035095215L17.52173878479004,30.23200035095215L17.52173878479004,26.66800035095215L18.96173878479004,26.66800035095215L20.95373878479004,30.23200035095215ZM27.361738784790038,30.400000350952148C29.64173878479004,30.400000350952148,31.21373878479004,28.624000350952148,31.21373878479004,25.78000035095215C31.21373878479004,22.93600035095215,29.64173878479004,21.23200035095215,27.361738784790038,21.23200035095215C25.093738784790037,21.23200035095215,23.509738784790038,22.92400035095215,23.509738784790038,25.78000035095215C23.509738784790038,28.624000350952148,25.093738784790037,30.400000350952148,27.361738784790038,30.400000350952148ZM27.361738784790038,29.176000350952147C25.89773878479004,29.176000350952147,24.94973878479004,27.84400035095215,24.94973878479004,25.78000035095215C24.94973878479004,23.71600035095215,25.89773878479004,22.444000350952148,27.361738784790038,22.444000350952148C28.82573878479004,22.444000350952148,29.785738784790038,23.71600035095215,29.785738784790038,25.78000035095215C29.785738784790038,27.84400035095215,28.82573878479004,29.176000350952147,27.361738784790038,29.176000350952147ZM34.20173878479004,30.400000350952148C36.001738784790035,30.400000350952148,36.769738784790036,29.11600035095215,36.769738784790036,27.52000035095215L36.769738784790036,21.388000350952147L35.36573878479004,21.388000350952147L35.36573878479004,27.400000350952148C35.36573878479004,28.684000350952147,34.93373878479004,29.176000350952147,34.04573878479004,29.176000350952147C33.48173878479004,29.176000350952147,32.989738784790035,28.888000350952147,32.617738784790035,28.21600035095215L31.64573878479004,28.92400035095215C32.19773878479004,29.89600035095215,33.013738784790036,30.400000350952148,34.20173878479004,30.400000350952148Z" fill="#FFFFFF" fill-opacity="1"/></g></g></svg>