<svg xmlns="http://www.w3.org/2000/svg" xmlns:xlink="http://www.w3.org/1999/xlink" fill="none" version="1.1" width="40" height="40" viewBox="0 0 40 40"><g><g><g><path d="M2.60091,0L21.25,0L32.9573,12.002L32.9573,37.334C32.9573,38.806,31.7926,40,30.3564,40L2.60091,40C1.16442,40,3.97364e-7,38.8064,0,37.334L0,2.66602C0,1.19402,1.16481,0,2.60091,0Z" fill="#EEEEEE" fill-opacity="1"/></g></g><g><g><path d="M21.25,0L32.9574,12L23.85099,12C22.4145,12,21.25,10.8064,21.25,9.334L21.25,0Z" fill="#D3D3D3" fill-opacity="1"/></g></g><g><rect x="5" y="18.33333396911621" width="35" height="15" rx="1" fill="#3D63E8" fill-opacity="1"/></g><g><path d="M12.709998191833495,23.415003804321287L9.552998191833495,23.415003804321287L9.552998191833495,25.63700380432129L12.489998191833497,25.63700380432129L12.489998191833497,26.715003804321288L9.552998191833495,26.715003804321288L9.552998191833495,29.96000380432129L8.320998191833496,29.96000380432129L8.320998191833496,22.325999804321288L12.709998191833495,22.325999804321288L12.709998191833495,23.415003804321287ZM13.942628191833496,26.142943804321288Q13.942628191833496,24.63545380432129,14.315028191833497,23.779663804321288Q14.690998191833497,22.92028680432129,15.421468191833496,22.56937580432129Q16.151938191833494,22.21488380432129,17.297768191833498,22.21488380432129Q18.450798191833496,22.21488380432129,19.177698191833496,22.56937580432129Q19.904498191833497,22.92028680432129,20.276898191833496,23.779663804321288Q20.652898191833494,24.63545380432129,20.652898191833494,26.142943804321288Q20.652898191833494,27.66117380432129,20.276898191833496,28.52054380432129Q19.904498191833497,29.376343804321287,19.177698191833496,29.72367380432129Q18.450798191833496,30.07100380432129,17.297768191833498,30.07100380432129Q16.151938191833494,30.07100380432129,15.421468191833496,29.72367380432129Q14.690998191833497,29.376343804321287,14.315028191833497,28.51338380432129Q13.942628191833496,27.65043380432129,13.942628191833496,26.142943804321288ZM19.353098191833496,26.142943804321288Q19.353098191833496,25.065143804321288,19.188398191833496,24.45642380432129Q19.023698191833496,23.84411380432129,18.583298191833496,23.54691380432129Q18.142828191833495,23.24971380432129,17.297768191833498,23.24971380432129Q16.459878191833496,23.24971380432129,16.0122881918335,23.54691380432129Q15.568278191833496,23.84411380432129,15.403568191833497,24.45642380432129Q15.238858191833497,25.065143804321288,15.238858191833497,26.142943804321288Q15.238858191833497,27.23148380432129,15.403568191833497,27.84379380432129Q15.568278191833496,28.45251380432129,16.008708191833495,28.73897380432129Q16.449138191833498,29.02543380432129,17.297768191833498,29.02543380432129Q18.142828191833495,29.02543380432129,18.583298191833496,28.73897380432129Q19.023698191833496,28.45251380432129,19.188398191833496,27.84379380432129Q19.353098191833496,27.23148380432129,19.353098191833496,26.142943804321288ZM24.732998191833495,26.99000380432129L24.534998191833495,26.99000380432129L23.588998191833497,26.99000380432129L23.588998191833497,29.96000380432129L22.356998191833497,29.96000380432129L22.356998191833497,22.325999804321288L24.534998191833495,22.325999804321288Q25.601998191833495,22.325999804321288,26.234498191833495,22.55150080432129Q26.866998191833495,22.77700080432129,27.163998191833496,23.277503804321288Q27.460998191833497,23.77800380432129,27.460998191833497,24.63600380432129Q27.460998191833497,25.593003804321288,27.092498191833496,26.12100380432129Q26.723998191833495,26.64900380432129,25.942998191833496,26.84700380432129L28.175998191833497,29.96000380432129L26.723998191833495,29.96000380432129L24.732998191833495,26.99000380432129ZM24.380998191833495,26.02200380432129Q25.084998191833495,26.02200380432129,25.469998191833497,25.91750380432129Q25.854998191833495,25.81300380432129,26.036498191833495,25.51600380432129Q26.217998191833495,25.21900380432129,26.217998191833495,24.63600380432129Q26.217998191833495,24.10800380432129,26.036498191833495,23.83300380432129Q25.854998191833495,23.558003804321288,25.464498191833496,23.45350380432129Q25.073998191833496,23.34900380432129,24.380998191833495,23.34900380432129L23.588998191833497,23.34900380432129L23.588998191833497,26.02200380432129L24.380998191833495,26.02200380432129ZM29.253998191833496,29.96000380432129L29.253998191833496,22.325999804321288L31.244998191833496,22.325999804321288L32.93899819183349,27.023003804321288L33.004998191833494,27.023003804321288L34.7319981918335,22.325999804321288L36.6789981918335,22.325999804321288L36.6789981918335,29.96000380432129L35.4579981918335,29.96000380432129L35.4579981918335,23.54700380432129L35.391998191833494,23.54700380432129L33.6099981918335,28.33200380432129L32.311998191833496,28.33200380432129L30.529998191833496,23.54700380432129L30.463998191833497,23.54700380432129L30.463998191833497,29.96000380432129L29.253998191833496,29.96000380432129Z" fill="#FFFFFF" fill-opacity="1"/></g></g></svg>