<svg xmlns="http://www.w3.org/2000/svg" xmlns:xlink="http://www.w3.org/1999/xlink" fill="none" version="1.1" width="40" height="40" viewBox="0 0 40 40"><g><g><g><path d="M2.60091,0L21.25,0L32.9573,12.002L32.9573,37.334C32.9573,38.806,31.7926,40,30.3564,40L2.60091,40C1.16442,40,3.97364e-7,38.8064,0,37.334L0,2.66602C0,1.19402,1.16481,0,2.60091,0Z" fill="#EEEEEE" fill-opacity="1"/></g></g><g><g><path d="M21.25,0L32.9574,12L23.85099,12C22.4145,12,21.25,10.8064,21.25,9.334L21.25,0Z" fill="#D3D3D3" fill-opacity="1"/></g></g><g><rect x="5" y="18.33333396911621" width="35" height="15" rx="1" fill="#4EC692" fill-opacity="1"/></g><g><path d="M12.803998840332032,22.18000094482422L9.35999884033203,22.18000094482422L9.35999884033203,24.604000944824218L12.563998840332031,24.604000944824218L12.563998840332031,25.78000094482422L9.35999884033203,25.78000094482422L9.35999884033203,29.32000094482422L8.015998840332031,29.32000094482422L8.015998840332031,20.99199994482422L12.803998840332032,20.99199994482422L12.803998840332032,22.18000094482422ZM14.351808840332032,26.60906094482422L14.351808840332032,20.991874944824218L15.695558840332032,20.991874944824218L15.695558840332032,26.378590944824218Q15.695558840332032,27.07781094482422,15.87524884033203,27.48406094482422Q16.05493884033203,27.89031094482422,16.46899884033203,28.07781094482422Q16.883058840332033,28.26531094482422,17.61743884033203,28.26531094482422Q18.37129884033203,28.26531094482422,18.78929884033203,28.07781094482422Q19.21119884033203,27.89031094482422,19.37919884033203,27.491870944824218Q19.547098840332033,27.08953094482422,19.547098840332033,26.378590944824218L19.547098840332033,20.991874944824218L20.87919884033203,20.991874944824218L20.87919884033203,26.60906094482422Q20.87919884033203,28.085620944824218,20.06279884033203,28.76531094482422Q19.24629884033203,29.441090944824218,17.60571884033203,29.441090944824218Q15.949468840332031,29.441090944824218,15.148688840332031,28.78875094482422Q14.351808840332032,28.13250094482422,14.351808840332032,26.60906094482422ZM22.91999884033203,29.32000094482422L22.91999884033203,20.99199994482422L25.007998840332032,20.99199994482422L28.36799884033203,27.55600094482422L28.43999884033203,27.55600094482422L28.43999884033203,20.99199994482422L29.77199884033203,20.99199994482422L29.77199884033203,29.32000094482422L27.95999884033203,29.32000094482422L24.31199884033203,22.348000944824218L24.23999884033203,22.348000944824218L24.23999884033203,29.32000094482422L22.91999884033203,29.32000094482422ZM31.620698840332032,25.15594094482422Q31.620698840332032,22.85125094482422,32.63239884033203,21.862968944824217Q33.647998840332036,20.87078094482422,35.56989884033203,20.87078094482422Q36.612898840332036,20.87078094482422,37.42929884033203,21.12468694482422L37.42929884033203,22.335620944824218Q36.62459884033203,22.04656094482422,35.62849884033203,22.04656094482422Q34.72619884033203,22.04656094482422,34.16369884033203,22.34344094482422Q33.60119884033203,22.636400944824217,33.32379884033203,23.316090944824218Q33.046498840332035,23.991870944824218,33.046498840332035,25.14422094482422Q33.046498840332035,26.366870944824218,33.31209884033203,27.03875094482422Q33.57769884033203,27.710620944824218,34.108998840332035,27.97625094482422Q34.644098840332035,28.241870944824218,35.54259884033203,28.241870944824218Q36.108998840332035,28.241870944824218,36.57379884033203,28.16375094482422Q37.04259884033203,28.085620944824218,37.522998840332036,27.91766094482422L37.522998840332036,29.093440944824216Q37.14019884033203,29.249690944824216,36.612898840332036,29.343440944824216Q36.085498840332036,29.441090944824218,35.49569884033203,29.441090944824218Q34.237898840332036,29.441090944824218,33.394098840332035,29.073900944824217Q32.55429884033203,28.70672094482422,32.085498840332036,27.773120944824218Q31.620698840332032,26.835620944824218,31.620698840332032,25.15594094482422Z" fill="#FFFFFF" fill-opacity="1"/></g></g></svg>