<svg xmlns="http://www.w3.org/2000/svg" xmlns:xlink="http://www.w3.org/1999/xlink" fill="none" version="1.1" width="40" height="40" viewBox="0 0 40 40"><g><g><g><path d="M2.60091,0L21.25,0L32.9573,12.002L32.9573,37.334C32.9573,38.806,31.7926,40,30.3564,40L2.60091,40C1.16442,40,3.97364e-7,38.8064,0,37.334L0,2.66602C0,1.19402,1.16481,0,2.60091,0Z" fill="#EEEEEE" fill-opacity="1"/></g></g><g><g><path d="M21.25,0L32.9574,12L23.85099,12C22.4145,12,21.25,10.8064,21.25,9.334L21.25,0Z" fill="#D3D3D3" fill-opacity="1"/></g></g><g><rect x="5" y="18.33333396911621" width="35" height="15" rx="1" fill="#D92F2F" fill-opacity="1"/></g><g><path d="M12.502000484466553,21.991999625824217L13.858000484466553,21.991999625824217L13.858000484466553,30.319994694824217L12.502000484466553,30.319994694824217L12.502000484466553,26.408004694824218L8.686000484466552,26.408004694824218L8.686000484466552,30.319994694824217L7.342000484466553,30.319994694824217L7.342000484466553,21.991999625824217L8.686000484466552,21.991999625824217L8.686000484466552,25.292004694824218L12.502000484466553,25.292004694824218L12.502000484466553,21.991999625824217ZM21.128600484466553,21.99187469482422L21.128600484466553,23.17937469482422L18.788700484466553,23.17937469482422L18.788700484466553,30.319994694824217L17.445000484466554,30.319994694824217L17.445000484466554,23.17937469482422L15.105120484466553,23.17937469482422L15.105120484466553,21.99187469482422L21.128600484466553,21.99187469482422ZM22.378000484466554,30.319994694824217L22.378000484466554,21.991999625824217L24.55000048446655,21.991999625824217L26.398000484466554,27.115994694824217L26.470000484466553,27.115994694824217L28.354000484466553,21.991999625824217L30.478000484466552,21.991999625824217L30.478000484466552,30.319994694824217L29.14600048446655,30.319994694824217L29.14600048446655,23.32399469482422L29.074000484466552,23.32399469482422L27.130000484466553,28.54399469482422L25.714000484466553,28.54399469482422L23.770000484466554,23.32399469482422L23.698000484466554,23.32399469482422L23.698000484466554,30.319994694824217L22.378000484466554,30.319994694824217ZM33.91000048446655,29.120004694824217L37.414000484466555,29.120004694824217L37.414000484466555,30.319994694824217L32.56600048446656,30.319994694824217L32.56600048446656,21.991999625824217L33.91000048446655,21.991999625824217L33.91000048446655,29.120004694824217Z" fill="#FFFFFF" fill-opacity="1"/></g></g></svg>