<svg xmlns="http://www.w3.org/2000/svg" xmlns:xlink="http://www.w3.org/1999/xlink" fill="none" version="1.1" width="40" height="40" viewBox="0 0 40 40"><g><g><g><path d="M2.60091,0L21.25,0L32.9573,12.002L32.9573,37.334C32.9573,38.806,31.7926,40,30.3564,40L2.60091,40C1.16442,40,3.97364e-7,38.8064,0,37.334L0,2.66602C0,1.19402,1.16481,0,2.60091,0Z" fill="#EEEEEE" fill-opacity="1"/></g></g><g><g><path d="M21.25,0L32.9574,12L23.85099,12C22.4145,12,21.25,10.8064,21.25,9.334L21.25,0Z" fill="#D3D3D3" fill-opacity="1"/></g></g><g><rect x="5" y="18.33333396911621" width="35" height="15" rx="1" fill="#B7A216" fill-opacity="1"/></g><g><path d="M12.000001113891601,28.640001983642577L16.0880011138916,28.640001983642577L16.0880011138916,30.040001983642576L10.432001113891602,30.040001983642576L10.432001113891602,20.324001983642578L12.000001113891601,20.324001983642578L12.000001113891601,28.640001983642577ZM17.642001113891602,30.040001983642576L17.642001113891602,20.324001983642578L19.2100011138916,20.324001983642578L19.2100011138916,30.040001983642576L17.642001113891602,30.040001983642576ZM21.212001113891603,29.81600198364258L21.212001113891603,28.388001983642578Q21.688001113891602,28.556001983642577,22.486001113891604,28.68200198364258Q23.284001113891602,28.808001983642576,24.0540011138916,28.808001983642576Q25.1180011138916,28.808001983642576,25.5940011138916,28.479001983642576Q26.0700011138916,28.15000198364258,26.0700011138916,27.35200198364258Q26.0700011138916,26.820001983642577,25.909001113891602,26.51900198364258Q25.748001113891604,26.21800198364258,25.3210011138916,26.02200198364258Q24.8940011138916,25.826001983642577,24.0120011138916,25.616001983642576Q22.9480011138916,25.364001983642577,22.3810011138916,25.056001983642577Q21.8140011138916,24.748001983642578,21.562001113891604,24.251001983642578Q21.3100011138916,23.754001983642578,21.3100011138916,22.88600198364258Q21.3100011138916,21.500001983642576,22.1430011138916,20.835001983642577Q22.976001113891602,20.170001983642578,24.6560011138916,20.170001983642578Q25.370001113891604,20.170001983642578,26.049001113891602,20.27500198364258Q26.7280011138916,20.380002983642576,27.1200011138916,20.52000198364258L27.1200011138916,21.89200198364258Q26.700001113891602,21.73800198364258,26.0070011138916,21.626001983642578Q25.3140011138916,21.51400198364258,24.6980011138916,21.51400198364258Q23.7040011138916,21.51400198364258,23.284001113891602,21.794001983642577Q22.864001113891604,22.074001983642578,22.864001113891604,22.858001983642577Q22.864001113891604,23.292001983642578,22.9900011138916,23.53700198364258Q23.1160011138916,23.78200198364258,23.508001113891602,23.96400198364258Q23.9000011138916,24.146001983642577,24.726001113891602,24.34200198364258Q25.8740011138916,24.608001983642577,26.4900011138916,24.951001983642577Q27.1060011138916,25.294001983642577,27.372001113891603,25.85400198364258Q27.6380011138916,26.414001983642578,27.6380011138916,27.366001983642576Q27.6380011138916,28.780001983642578,26.756001113891603,29.48000198364258Q25.8740011138916,30.180001983642576,24.0820011138916,30.180001983642576Q23.2560011138916,30.180001983642576,22.4510011138916,30.068001983642578Q21.6460011138916,29.95600198364258,21.212001113891603,29.81600198364258ZM35.5463011138916,20.323855983642577L35.5463011138916,21.709271983642576L32.816501113891604,21.709271983642576L32.816501113891604,30.040001983642576L31.248801113891602,30.040001983642576L31.248801113891602,21.709271983642576L28.5190011138916,21.709271983642576L28.5190011138916,20.323855983642577L35.5463011138916,20.323855983642577Z" fill="#FFFFFF" fill-opacity="1"/></g></g></svg>