<svg xmlns="http://www.w3.org/2000/svg" xmlns:xlink="http://www.w3.org/1999/xlink" fill="none" version="1.1" width="40" height="40" viewBox="0 0 40 40"><g><g><g><path d="M2.60091,0L21.25,0L32.9573,12.002L32.9573,37.334C32.9573,38.806,31.7926,40,30.3564,40L2.60091,40C1.16442,40,3.97364e-7,38.8064,0,37.334L0,2.66602C0,1.19402,1.16481,0,2.60091,0Z" fill="#EEEEEE" fill-opacity="1"/></g></g><g><g><path d="M21.25,0L32.9574,12L23.85099,12C22.4145,12,21.25,10.8064,21.25,9.334L21.25,0Z" fill="#D3D3D3" fill-opacity="1"/></g></g><g><rect x="5" y="18.33333396911621" width="35" height="15" rx="1" fill="#FF6B00" fill-opacity="1"/></g><g><path d="M12.41333293914795,29.586669618530273L12.41333293914795,28.226669618530273Q12.86666593914795,28.386669618530274,13.626662939147948,28.506669618530275Q14.38666293914795,28.626669618530272,15.120002939147948,28.626669618530272Q16.133332939147948,28.626669618530272,16.58666293914795,28.313329618530275Q17.04000293914795,27.999999618530275,17.04000293914795,27.239999618530273Q17.04000293914795,26.733329618530274,16.88666293914795,26.446669618530272Q16.73333293914795,26.15999961853027,16.32666293914795,25.973329618530272Q15.920002939147949,25.786669618530272,15.080002939147949,25.586669618530273Q14.06666293914795,25.346669618530274,13.526662939147949,25.053329618530274Q12.986665939147949,24.759999618530273,12.746665939147949,24.286669618530272Q12.506666239147949,23.813329618530275,12.506666239147949,22.98666961853027Q12.506666239147949,21.666669618530275,13.299999939147948,21.033333618530275Q14.093332939147949,20.399999618530273,15.693332939147949,20.399999618530273Q16.37333293914795,20.399999618530273,17.02000293914795,20.500000618530272Q17.666662939147947,20.600000618530274,18.04000293914795,20.733333618530274L18.04000293914795,22.039999618530274Q17.640002939147948,21.893329618530274,16.98000293914795,21.786669618530272Q16.320002939147948,21.679999618530275,15.73333293914795,21.679999618530275Q14.786662939147948,21.679999618530275,14.38666293914795,21.946669618530272Q13.98666293914795,22.213329618530274,13.98666293914795,22.959999618530272Q13.98666293914795,23.373329618530274,14.106662939147949,23.606669618530272Q14.22666293914795,23.839999618530275,14.600002939147949,24.013329618530275Q14.97333293914795,24.186669618530274,15.760002939147949,24.373329618530274Q16.85333293914795,24.626669618530272,17.44000293914795,24.953329618530272Q18.02666293914795,25.279999618530272,18.28000293914795,25.813329618530275Q18.53333293914795,26.346669618530274,18.53333293914795,27.253329618530273Q18.53333293914795,28.599999618530273,17.69333293914795,29.266669618530273Q16.85333293914795,29.933329618530273,15.14666293914795,29.933329618530273Q14.360002939147948,29.933329618530273,13.593332939147949,29.826669618530275Q12.826665939147949,29.719999618530274,12.41333293914795,29.586669618530273ZM25.70663293914795,29.786669618530276L27.25333293914795,31.733299618530275L25.48003293914795,31.733299618530275L24.24003293914795,29.933329618530273L24.16003293914795,29.933329618530273Q22.78663293914795,29.919999618530273,21.92000293914795,29.493329618530275Q21.05333293914795,29.066669618530273,20.60666293914795,28.026669618530274Q20.16000293914795,26.98666961853027,20.16000293914795,25.173329618530275Q20.16000293914795,23.346669618530274,20.61333293914795,22.30666961853027Q21.06666293914795,21.266666618530273,21.95333293914795,20.839999618530275Q22.84003293914795,20.413333618530274,24.226632939147947,20.413333618530274Q25.62663293914795,20.413333618530274,26.50663293914795,20.839999618530275Q27.38663293914795,21.266666618530273,27.84003293914795,22.30666961853027Q28.293332939147952,23.346669618530274,28.293332939147952,25.173329618530275Q28.293332939147952,27.346669618530274,27.66003293914795,28.413329618530273Q27.02663293914795,29.47999961853027,25.70663293914795,29.786669618530276ZM24.226632939147947,28.66666961853027Q25.25333293914795,28.66666961853027,25.78663293914795,28.319999618530275Q26.32003293914795,27.973329618530272,26.52003293914795,27.233329618530274Q26.72003293914795,26.493329618530275,26.72003293914795,25.173329618530275Q26.72003293914795,23.866669618530274,26.52003293914795,23.126669618530272Q26.32003293914795,22.386669618530274,25.78663293914795,22.026669618530274Q25.25333293914795,21.666669618530275,24.226632939147947,21.666669618530275Q23.21333293914795,21.666669618530275,22.673332939147947,22.026669618530274Q22.133332939147948,22.386669618530274,21.93333293914795,23.126669618530272Q21.73333293914795,23.866669618530274,21.73333293914795,25.173329618530275Q21.73333293914795,26.493329618530275,21.93333293914795,27.233329618530274Q22.133332939147948,27.973329618530272,22.66663293914795,28.319999618530275Q23.20003293914795,28.66666961853027,24.226632939147947,28.66666961853027ZM31.85333293914795,28.466669618530275L35.74663293914795,28.466669618530275L35.74663293914795,29.799999618530272L30.36003293914795,29.799999618530272L30.36003293914795,20.546666618530274L31.85333293914795,20.546666618530274L31.85333293914795,28.466669618530275Z" fill="#FFFFFF" fill-opacity="1"/></g></g></svg>