<svg xmlns="http://www.w3.org/2000/svg" xmlns:xlink="http://www.w3.org/1999/xlink" fill="none" version="1.1" width="92.50002247416114" height="91.50002271978039" viewBox="0 0 92.50002247416114 91.50002271978039"><g transform="matrix(-1,2.456192476074648e-7,-2.456192476074648e-7,-1,183.50006686984003,181.4999778328574)"><path d="M180.86842228994664,90.21165318421443L177.00052228994662,87.13495018421443Q176.94272228994663,87.08896018421443,176.8950222899466,87.03258018421442Q176.84732228994665,86.97620018421443,176.81142228994662,86.91160018421442Q176.77562228994663,86.84699018421443,176.75312228994665,86.77664018421443Q176.7306222899466,86.70629018421442,176.72222228994661,86.63289018421443Q176.71392228994662,86.55950018421443,176.72002228994663,86.48588018421442Q176.72612228994663,86.41227018421444,176.74652228994663,86.34126018421443Q176.76682228994662,86.27026018421444,176.80072228994663,86.20458018421442Q176.83452228994662,86.13891018421442,176.8805222899466,86.08110018421443Q176.97332228994662,85.96435018421442,177.10382228994663,85.89203018421443Q177.23432228994665,85.81970018421443,177.38252228994662,85.80281018421442Q177.53082228994663,85.78593018421442,177.67412228994664,85.82705018421443Q177.81762228994663,85.86817018421443,177.93432228994664,85.96104018421443L183.21692228994664,90.16304718421443L183.21692228994664,90.16306718421443Q183.27472228994662,90.20905318421443,183.32242228994664,90.26543218421443Q183.37022228994664,90.32181218421442,183.40602228994663,90.38641818421443Q183.44182228994663,90.45102518421443,183.4643222899466,90.52137618421443Q183.48682228994664,90.59172618421442,183.49522228994664,90.66511858421443Q183.50352228994663,90.73851048421443,183.49742228994663,90.81212318421443Q183.49132228994662,90.88573618421442,183.47092228994663,90.95674018421442Q183.45062228994664,91.02774518421442,183.41682228994662,91.09341318421443Q183.38292228994663,91.15908118421443,183.33702228994662,91.21689018421444L179.13492228994664,96.49947018421443Q179.04212228994663,96.61622018421443,178.91162228994665,96.68854018421443Q178.7811222899466,96.76087018421443,178.63292228994663,96.77776018421443Q178.48472228994663,96.79464018421443,178.34132228994662,96.75352018421442Q178.19792228994663,96.71240018421443,178.08112228994662,96.61953018421443Q178.02332228994663,96.57355018421443,177.9756222899466,96.51717018421442Q177.92782228994662,96.46079018421443,177.89202228994662,96.39618018421443Q177.85622228994663,96.33157018421443,177.83372228994662,96.26122018421442Q177.8112222899466,96.19087018421443,177.80282228994662,96.11748018421443Q177.79442228994662,96.04408018421442,177.80052228994663,95.97047018421443Q177.80672228994663,95.89685018421443,177.82702228994663,95.82584018421443Q177.84742228994662,95.75484018421443,177.88122228994663,95.68917018421443Q177.91512228994662,95.62350018421444,177.96102228994664,95.56569018421443L181.03402228994662,91.70250118421443L180.79892228994663,91.72956018421444L180.62742228994662,90.23940218421443L180.86842228994664,90.21165318421443ZM172.78922228994662,92.70209018421443L176.81362228994664,92.20298018421443L176.62902228994665,90.71438438421443L172.60462228994663,91.21349418421443L172.78922228994662,92.70209018421443ZM164.80642228994662,93.76267018421443L168.8273222899466,93.21601018421443L168.62522228994663,91.72968418421443L164.60432228994662,92.27634018421443L164.80642228994662,93.76267018421443ZM156.8642222899466,94.92741018421442L160.8205222899466,94.33210018421443L160.59732228994665,92.84880018421443L156.64102228994665,93.44411018421442L156.8642222899466,94.92741018421442ZM148.88342228994662,96.23500018421443Q150.82862228994662,95.89662018421443,152.86182228994664,95.56387018421442L152.61952228994664,94.08356018421443Q150.57882228994663,94.41755018421443,148.62632228994664,94.75719018421442L148.88342228994662,96.23500018421443ZM141.00602228994663,97.69997018421444Q142.91772228994662,97.31903018421443,144.93352228994664,96.94472018421443L144.65962228994664,95.46993018421443Q142.63422228994662,95.84603018421443,140.71292228994662,96.22889018421444L141.00602228994663,97.69997018421444ZM133.11962228994662,99.40334018421443Q135.01902228994663,98.95702018421443,137.05152228994663,98.51908018421443L136.73552228994663,97.05273018421443Q134.68952228994664,97.49360018421443,132.77652228994663,97.94311018421443L133.11962228994662,99.40334018421443ZM125.34912228994662,101.42410018421442Q127.19462228994664,100.88940018421442,129.21652228994662,100.36560018421443L128.84042228994662,98.91353018421442Q126.79772228994662,99.44266018421443,124.93162228994663,99.98341018421442L125.34912228994662,101.42410018421442ZM117.76942228994663,103.95160018421443Q119.52032228994662,103.26950018421442,121.53452228994664,102.60330018421443L121.06352228994663,101.17920018421442Q119.01222228994664,101.85760018421443,117.22492228994663,102.55390018421443L117.76942228994663,103.95160018421443ZM110.68062228994663,107.45090018421443Q112.14972228994662,106.47940018421443,114.10712228994663,105.53360018421444L113.45452228994662,104.18300018421442Q111.40642228994663,105.17270018421443,109.85322228994663,106.19970018421444L110.68062228994663,107.45090018421443ZM106.37672228994663,113.07810018421443Q106.44932228994662,111.48260018421443,107.77882228994663,109.91680018421442L106.63542228994663,108.94590018421442Q104.97422228994662,110.90230018421443,104.87822228994662,113.00990018421443L106.37672228994663,113.07810018421443ZM110.06742228994662,119.16860018421443Q108.38642228994662,117.74030018421443,107.46622228994663,116.38060018421443L106.22402228994663,117.22120018421442Q107.25892228994663,118.75070018421442,109.09622228994662,120.31170018421443L110.06742228994662,119.16860018421443ZM116.66872228994663,123.51240018421443Q114.78712228994662,122.49220018421443,113.24462228994662,121.49570018421443L112.43062228994663,122.75560018421443Q114.02152228994663,123.78340018421443,115.95372228994663,124.83100018421443L116.66872228994663,123.51240018421443ZM123.55002228994663,126.83380018421443Q121.81672228994663,126.07740018421443,120.25582228994662,125.33240018421444L119.60972228994663,126.68610018421444Q121.19352228994663,127.44200018421444,122.95002228994663,128.20850018421442L123.31892228994663,128.37030018421444L123.92132228994663,126.99660018421443L123.55002228994663,126.83380018421443ZM131.23722228994663,130.59670018421443Q129.53342228994663,129.64970018421442,127.61892228994662,128.71210018421442L126.95922228994664,130.05930018421444Q128.83882228994662,130.97970018421444,130.50842228994662,131.90780018421444L131.23722228994663,130.59670018421443ZM138.07212228994663,135.09210018421442Q136.56302228994662,133.88330018421442,134.72872228994663,132.6904001842144L133.91092228994663,133.94780018421443Q135.68302228994662,135.10040018421444,137.13442228994663,136.26290018421443L138.07212228994663,135.09210018421442ZM143.61102228994662,141.26630018421443Q142.65732228994662,139.55940018421444,141.10912228994664,137.88820018421444L140.00872228994663,138.90770018421443Q141.43522228994664,140.44740018421442,142.30152228994663,141.99790018421442L143.61102228994662,141.26630018421443ZM144.76982228994663,149.60780018421443Q145.3445222899466,147.44210018421444,145.02872228994664,145.30620018421442L143.54482228994664,145.52570018421443Q143.8155222899466,147.35590018421442,143.32002228994662,149.2230001842144L144.76982228994663,149.60780018421443ZM140.48292228994663,156.76880018421443Q142.01652228994664,155.1150001842144,143.04452228994663,153.4730001842144L141.77312228994663,152.67700018421442Q140.82032228994663,154.19890018421444,139.38302228994664,155.74890018421445L140.48292228994663,156.76880018421443ZM134.26032228994663,162.10930018421442Q136.02362228994662,160.84930018421443,137.49942228994664,159.59890018421441L136.52972228994662,158.45440018421442Q135.10112228994663,159.66500018421442,133.3882222899466,160.88890018421444L134.26032228994663,162.10930018421442ZM127.38132228994664,166.45130018421443Q129.22712228994664,165.40650018421442,130.87932228994663,164.36890018421443L130.08162228994664,163.09860018421443Q128.4584222899466,164.11800018421442,126.64242228994664,165.14590018421444L127.38132228994664,166.45130018421443ZM120.17792228994662,170.20320018421444Q122.06342228994663,169.29290018421443,123.80632228994662,168.38770018421442L123.11492228994663,167.05650018421443Q121.39152228994664,167.95160018421444,119.52572228994663,168.8523001842144L120.17792228994662,170.20320018421444ZM112.80792228994663,173.54810018421443Q114.71542228994663,172.7307001842144,116.50942228994663,171.91790018421443L115.89032228994662,170.5516001842144Q114.11052228994663,171.35800018421443,112.21712228994663,172.16940018421442L112.80792228994663,173.54810018421443ZM105.31542228994662,176.6057001842144Q107.24332228994663,175.85440018421443,109.07632228994663,175.10710018421443L108.51012228994662,173.71810018421445Q106.68732228994662,174.46120018421442,104.77072228994663,175.20810018421443L105.31542228994662,176.6057001842144ZM97.72427228994663,179.44740018421442Q99.66330228994663,178.74890018421445,101.52435228994663,178.05270018421442L100.99885228994663,176.64780018421442Q99.14642228994663,177.34070018421443,97.21585228994662,178.0362001842144L97.72427228994663,179.44740018421442ZM91.99476328994663,181.45890018421443L93.93012228994662,180.79080018421445L93.44063228994663,179.37290018421442L91.50528128994662,180.04110018421443L91.99476328994663,181.45890018421443Z" fill-rule="evenodd" fill="#FFFFFF" fill-opacity="1"/></g></svg>