<svg xmlns="http://www.w3.org/2000/svg" xmlns:xlink="http://www.w3.org/1999/xlink" fill="none" version="1.1" width="88" height="88" viewBox="0 0 88 88"><defs><clipPath id="master_svg0_1229_70580"><rect x="28" y="18" width="32" height="32" rx="0"/></clipPath></defs><g><rect x="0" y="0" width="88" height="88" rx="0" fill="#F5F5F5" fill-opacity="1"/><rect x="0.5" y="0.5" width="87" height="87" rx="0" fill-opacity="0" stroke-opacity="1" stroke="#E8E8E8" fill="none" stroke-width="1"/><g><g></g></g><g><g clip-path="url(#master_svg0_1229_70580)"><g><path d="M57.6198,25.00878C57.3682,24.735021,57.0073,24.581267,56.6319,24.566266L45.9182,24.153754L45.1163,25.91256L46.231700000000004,29.18265L44.2195,32.89526L45.0361,35.8916L47.0774,38.4604L50.0302,35.8166C50.314499999999995,35.5578,50.7702,35.5728,51.018100000000004,35.861599999999996L54.8056,39.8517C55.0717,40.1255,55.0571,40.5717,54.772800000000004,40.8305C54.6306,40.9542,54.4593,41.0292,54.2697,41.0142L43.8878,40.6167L43.3701,42.068L43.9352,43.3656L55.873599999999996,43.808099999999996C56.657399999999996,43.8381,57.3172,43.2418,57.3354,42.4768L57.9989,26.00256C58.0135,25.63505,57.8859,25.26754,57.6198,25.00878ZM49.9536,32.57275C48.7762,32.52775,47.8648,31.56397,47.9122,30.431440000000002C47.959599999999995,29.2839,48.947500000000005,28.39888,50.1104,28.44388C51.2732,28.48888,52.1991,29.45266,52.1518,30.58519C52.108000000000004,31.71772,51.1165,32.6215,49.9536,32.57275ZM42.2583,42.083L42.6192,40.553L34.1839,41.1192C33.7902,41.1493,33.46212,40.8755,33.42931,40.492999999999995C33.41473,40.309200000000004,33.4767,40.1255,33.60064,39.9867L39.85239,33.00026C39.97634,32.84651,40.1659,32.77151,40.37,32.77151C40.5596,32.77151,40.7455,32.84651,40.8877,32.98526L42.9764,35.111599999999996L42.0797,32.85026L43.6836,28.93889L42.2219,25.8038L42.8197,24L31.32231,24.780023C30.538559,24.825024,29.9553048,25.48504,30.00269413,26.24632L31.16556,42.7243C31.18014,43.0918,31.35511,43.4256,31.65403,43.658100000000005C31.93837,43.9018,32.29926,44.0256,32.67473,43.995599999999996L42.9473,43.3093L42.2583,42.083Z" fill="#999999" fill-opacity="1"/></g></g><g><path d="M26.864,57.14L26.864,66.5156L27.728,66.5156L27.728,65.624L30.055999999999997,65.624L30.055999999999997,66.4192L30.956,66.4192L30.956,57.14L26.864,57.14ZM27.728,64.76L27.728,58.016L30.055999999999997,58.016L30.055999999999997,64.76L27.728,64.76ZM22.34,55.8035L22.328,57.932L20.636,57.932L20.636,58.808L22.304,58.808C22.22,61.832,21.848,64.496,20.336,66.08C20.564,66.224,20.888,66.5,21.032,66.7059C22.652,64.94,23.072,62.06,23.18,58.808L25.003999999999998,58.808C24.908,63.428,24.8,65.072,24.548000000000002,65.42C24.44,65.576,24.32,65.624,24.14,65.612C23.924,65.612,23.408,65.612,22.844,65.564C23,65.816,23.084,66.2,23.108,66.464C23.648,66.5,24.2,66.5122,24.536,66.464C24.884,66.416,25.112000000000002,66.30799999999999,25.328,65.996C25.7,65.48,25.784,63.728,25.88,58.388C25.88,58.256,25.88,57.932,25.88,57.932L23.204,57.932L23.228,55.8035L22.34,55.8035ZM40.832,56.32288C41.384,56.792,42.019999999999996,57.452,42.296,57.896L42.980000000000004,57.416C42.68,56.972,42.032,56.33488,41.480000000000004,55.90119L40.832,56.32288ZM42.068,59.72C41.756,60.86,41.312,61.964,40.748000000000005,62.96C40.519999999999996,61.903999999999996,40.364000000000004,60.596000000000004,40.268,59.096000000000004L43.412,59.096000000000004L43.412,58.364L40.232,58.364C40.196,57.512,40.184,56.612,40.196,55.66006L39.308,55.66006C39.308,56.588,39.332,57.5,39.367999999999995,58.364L36.416,58.364L36.416,57.332L38.54,57.332L38.54,56.612L36.416,56.612L36.416,55.63606L35.552,55.63606L35.552,56.612L33.26,56.612L33.26,57.332L35.552,57.332L35.552,58.364L32.647999999999996,58.364L32.647999999999996,59.096000000000004L39.403999999999996,59.096000000000004C39.524,61.004,39.751999999999995,62.696,40.111999999999995,63.992000000000004C39.524,64.832,38.852000000000004,65.55199999999999,38.084,66.104C38.3,66.26,38.564,66.524,38.72,66.7173C39.356,66.224,39.932,65.624,40.448,64.964C40.891999999999996,65.996,41.492000000000004,66.596,42.272,66.596C43.111999999999995,66.596,43.412,66.044,43.556,64.244C43.34,64.16,43.028,63.980000000000004,42.848,63.775999999999996C42.775999999999996,65.18,42.656,65.72,42.356,65.72C41.84,65.72,41.396,65.132,41.06,64.1C41.84,62.864000000000004,42.44,61.448,42.872,59.96L42.068,59.72ZM32.78,64.628L32.876,65.468L35.996,65.144L35.996,66.6446L36.836,66.6446L36.836,65.06L39.019999999999996,64.832L39.019999999999996,64.088L36.836,64.292L36.836,63.164L38.744,63.164L38.744,62.384L36.836,62.384L36.836,61.412L35.996,61.412L35.996,62.384L34.328,62.384C34.592,61.988,34.844,61.532,35.096000000000004,61.04L38.995999999999995,61.04L38.995999999999995,60.296L35.456,60.296C35.6,59.984,35.732,59.672,35.852000000000004,59.36L34.964,59.12C34.844,59.516,34.688,59.924,34.532,60.296L32.828,60.296L32.828,61.04L34.196,61.04C33.992000000000004,61.448,33.824,61.76,33.728,61.903999999999996C33.536,62.228,33.356,62.468,33.176,62.504C33.284,62.732,33.403999999999996,63.152,33.452,63.332C33.56,63.236000000000004,33.92,63.164,34.424,63.164L35.996,63.164L35.996,64.364L32.78,64.628ZM49.472,55.64731L49.472,57.752L47.168,57.752C47.396,57.19888,47.6,56.60938,47.768,56.00806L46.832,55.815690000000004C46.4,57.45144,45.656,59.06,44.72,60.08C44.948,60.176,45.391999999999996,60.416,45.584,60.548C46.004000000000005,60.032,46.4,59.384,46.760000000000005,58.664L49.472,58.664L49.472,59.384C49.472,59.936,49.448,60.5,49.352000000000004,61.052L44.647999999999996,61.052L44.647999999999996,61.952L49.147999999999996,61.952C48.644,63.5139,47.42,64.9436,44.504000000000005,65.92869999999999C44.696,66.1089,44.96,66.4932,45.068,66.7096C48.14,65.6523,49.472,64.0786,50.024,62.3486C50.96,64.5832,52.544,66.0489,55.052,66.6976C55.184,66.4573,55.448,66.0729,55.652,65.8807C53.204,65.3279,51.620000000000005,63.9824,50.792,61.952L55.364,61.952L55.364,61.052L50.312,61.052C50.384,60.5,50.408,59.936,50.408,59.384L50.408,58.664L54.356,58.664L54.356,57.752L50.408,57.752L50.408,55.64731L49.472,55.64731ZM58.808,57.86L58.808,61.10188C58.808,62.650999999999996,58.652,64.8125,56.468,66.0733C56.648,66.2294,56.9,66.5056,57.02,66.6858C59.336,65.2327,59.6,62.9032,59.6,61.10188L59.6,57.86L58.808,57.86ZM59.456,64.2119C59.984,64.8965,60.644,65.8331,60.968,66.3856L61.628,65.9173C61.304,65.3889,60.632,64.4881,60.092,63.827799999999996L59.456,64.2119ZM57.068,56.228L57.068,63.5276L57.824,63.5276L57.824,57.044L60.56,57.044L60.56,63.5036L61.34,63.5036L61.34,56.228L57.068,56.228ZM63.488,58.58L65.732,58.58C65.52799999999999,60.45331,65.12,61.94244,64.532,63.1192C63.896,62.0864,63.404,60.89769,63.068,59.63675C63.212,59.30056,63.356,58.94038,63.488,58.58ZM63.416,55.75738C63.044,57.608,62.42,59.42056,61.556,60.6095C61.724,60.78969,62,61.17388,62.108,61.354060000000004C62.264,61.12588,62.42,60.88569,62.576,60.6215C62.96,61.82225,63.464,62.9272,64.088,63.8878C63.44,64.8485,62.636,65.5449,61.676,66.0373C61.856,66.1814,62.12,66.4936,62.228,66.6858C63.14,66.1934,63.92,65.5089,64.58,64.5723C65.26400000000001,65.4609,66.068,66.1694,67.00399999999999,66.6738C67.136,66.4696,67.388,66.1694,67.58,66.0013C66.596,65.5329,65.732,64.7765,65.024,63.8398C65.756,62.5188,66.25999999999999,60.78969,66.512,58.58L67.364,58.58L67.364,57.764L63.752,57.764C63.944,57.164,64.1,56.552,64.232,55.9385L63.416,55.75738Z" fill="#999999" fill-opacity="1"/></g></g></g></svg>