<svg xmlns="http://www.w3.org/2000/svg" xmlns:xlink="http://www.w3.org/1999/xlink" fill="none" version="1.1" width="16" height="16" viewBox="0 0 16 16"><g><g><path d="M13,2C13.5523,2,14,2.447715,14,3C14,3,14,13,14,13C14,13.5523,13.5523,14,13,14C13,14,3,14,3,14C2.447715,14,2,13.5523,2,13C2,13,2,3,2,3C2,2.447715,2.447715,2,3,2C3,2,13,2,13,2ZM7.5,3C7.5,3,3,3,3,3C3,3,3,7.5,3,7.5C3,7.5,7.5,7.5,7.5,7.5C7.5,7.5,7.5,3,7.5,3ZM8.5,13C8.5,13,13,13,13,13C13,13,13,8.5,13,8.5C13,8.5,8.5,8.5,8.5,8.5C8.5,8.5,8.5,13,8.5,13ZM7.5,8.5C7.5,8.5,3,8.5,3,8.5C3,8.5,3,13,3,13C3,13,7.5,13,7.5,13C7.5,13,7.5,8.5,7.5,8.5ZM8.5,7.5C8.5,7.5,13,7.5,13,7.5C13,7.5,13,3,13,3C13,3,8.5,3,8.5,3C8.5,3,8.5,7.5,8.5,7.5Z" fill="#333333" fill-opacity="1"/></g></g></svg>