<svg xmlns="http://www.w3.org/2000/svg" xmlns:xlink="http://www.w3.org/1999/xlink" fill="none" version="1.1" width="14" height="11" viewBox="0 0 14 11"><g><path d="M14,10C14,10,0,10,0,10C0,10,0,11,0,11C0,11,14,11,14,11C14,11,14,10,14,10ZM1.5,9C0.947715,9,0.5,8.55228,0.5,8C0.5,8,0.5,1,0.5,1C0.5,0.447716,0.947715,0,1.5,0C1.5,0,12.5,2.27374e-13,12.5,2.27374e-13C13.0523,2.27374e-13,13.5,0.447715,13.5,1C13.5,1,13.5,8,13.5,8C13.5,8.55228,13.0523,9,12.5,9C12.5,9,1.5,9,1.5,9ZM1.5,8C1.5,8,12.5,8,12.5,8C12.5,8,12.5,1,12.5,1C12.5,1,1.5,1,1.5,1C1.5,1,1.5,8,1.5,8Z" fill="#333333" fill-opacity="1"/></g></svg>