<svg xmlns="http://www.w3.org/2000/svg" xmlns:xlink="http://www.w3.org/1999/xlink" fill="none" version="1.1" width="16" height="16" viewBox="0 0 16 16"><g><g><path d="M7.9997534375,7.5084113671875L14.0731234375,4.977911367187501C14.4835234375,4.8069013671875,14.4835234375,4.2004113671875,14.0731234375,4.0294013671875L7.9997534375,1.4989013671875L1.9264054375,4.0294013671875C1.5159758375,4.2004113671875,1.5159767375,4.8069013671875,1.9264054375,4.977911367187501L7.9997534375,7.5084113671875ZM7.9997534375,6.4088113671875L3.4272734375000002,4.5036513671875L7.9997534375,2.5985013671874997L12.5722234375,4.5036513671875L7.9997534375,6.4088113671875ZM1.4990234375,7.0266413671875L1.4990234375,8.2537913671875L8.0000134375,11.1119413671875L14.4990234375,8.2546613671875L14.4990234375,7.0275113671875L8.0000134375,9.8847913671875L1.4990234375,7.0266413671875ZM1.4990234375,10.4194313671875L1.4990234375,11.6466013671875L8.0001034375,14.5048013671875L14.4990234375,11.6475013671875L14.4990234375,10.4203813671875L8.0001034375,13.2776013671875L1.4990234375,10.4194313671875Z" fill-rule="evenodd" fill="#333333" fill-opacity="1"/></g></g></svg>