<svg xmlns="http://www.w3.org/2000/svg" xmlns:xlink="http://www.w3.org/1999/xlink" fill="none" version="1.1" width="12" height="14" viewBox="0 0 12 14"><g><path d="M6,0C9.24,0,11.88,1.33389,11.9963,2.99756L12,3.11111L12,11.0304C12,12.6692,9.3135,14,6,14C2.76,14,0.12,12.7276,0.00375023,11.1393L0,11.0304L0,3.11111L0.00374994,2.99756C0.12,1.33311,2.76,0,6,0ZM11.0775,8.65822C10.0133,9.53089,8.1375,10.1111,6,10.1111C3.8625,10.1111,1.986,9.53089,0.9225,8.65822L0.9225,11.0304C0.9225,11.7024,2.715,13.0099,6,13.0099C9.20025,13.0099,10.9838,11.7686,11.0738,11.0833L11.0767,11.0304L11.0775,8.65822ZM11.0775,11.0304L11.0775,4.76933C10.0133,5.642,8.1375,6.22222,6,6.22222C3.8625,6.22222,1.986,5.642,0.9225,4.76933L0.9225,7C0.9225,7.70389,2.715,9.07433,6,9.07433C9.285,9.07433,11.0775,7.70389,11.0775,7L11.0775,4.76933L11.0775,11.0304ZM6,1.03678C2.715,1.03678,0.9225,2.40722,0.9225,3.11111C0.9225,3.815,2.715,5.18544,6,5.18544C9.285,5.18544,11.0775,3.815,11.0775,3.11111C11.0775,2.40722,9.285,1.03678,6,1.03678Z" fill="#333333" fill-opacity="1"/></g></svg>