<svg xmlns="http://www.w3.org/2000/svg" xmlns:xlink="http://www.w3.org/1999/xlink" fill="none" version="1.1" width="14" height="14" viewBox="0 0 14 14"><g><path d="M14,7C14,10.866,10.866,14,7,14C3.13401,14,0,10.866,0,7C0,3.13401,3.13401,0,7,0C10.866,0,14,3.13401,14,7ZM1,7C1,10.3137,3.68629,13,7,13C10.3137,13,13,10.3137,13,7C13,3.68629,10.3137,1,7,1C3.68629,1,1,3.68629,1,7ZM3.5,7.5L6.5,7.5L6.5,10.5L7.5,10.5L7.5,7.5L10.5,7.5L10.5,6.5L7.5,6.5L7.5,3.5L6.5,3.5L6.5,6.5L3.5,6.5L3.5,7.5Z" fill-rule="evenodd" fill="#333333" fill-opacity="1"/></g></svg>