<svg xmlns="http://www.w3.org/2000/svg" xmlns:xlink="http://www.w3.org/1999/xlink" fill="none" version="1.1" width="14" height="12" viewBox="0 0 14 12"><g><path d="M9.1,0.923077C9.1,1.15385,8.98333,1.26923,8.86666,1.38462C8.86666,1.5,8.63333,1.5,8.51667,1.5C8.28333,1.5,8.16667,1.5,8.05,1.38462C8.05,1.26923,7.93333,1.03846,7.81667,0.807692Q7.81667,0.692308,7.7,0.576923Q7.58333,0.461538,7.46667,0.461538C7.35,0.461538,7.23333,0.461538,7.23333,0.576923C7.11667,0.692308,7.11667,0.807692,7.11667,1.03846L6.3,3.57692L7.35,3.57692L7.23333,4.15385L6.06667,4.15385L4.9,7.84615C4.66667,8.65385,4.43333,9.46154,4.2,10.0385C3.96667,10.6154,3.61667,11.0769,3.15,11.4231C2.68333,11.7692,2.21667,12,1.51667,12C1.05,12,0.7,11.8846,0.35,11.6538C6.67572e-8,11.4231,0,11.1923,0,10.9615C0,10.7308,0.116667,10.6154,0.233333,10.5C0.35,10.3846,0.583333,10.2692,0.816667,10.2692C1.05,10.2692,1.28333,10.3846,1.28333,10.5C1.4,10.6154,1.4,10.8462,1.4,11.0769C1.4,11.4231,1.51667,11.5385,1.75,11.5385C1.98333,11.5385,2.1,11.4231,2.33333,11.1923C2.45,10.9615,2.56667,10.6154,2.8,10.0385L4.55,4.15385L3.38333,4.15385L3.61667,3.57692L4.78333,3.57692L4.9,3.11538C5.01667,2.53846,5.25,2.07692,5.48333,1.61538C5.71667,1.15385,5.95,0.807692,6.41667,0.461538C6.88333,0.115384,7.35,0,7.93333,0C8.16667,0,8.4,0,8.51667,0.115385C8.63333,0.115385,8.86667,0.230769,8.98333,0.346154C9.1,0.461538,9.1,0.692308,9.1,0.923077ZM14,4.26923C14,4.5,14,4.84615,13.8833,5.07692L13.3,5.07692C13.4167,4.73077,13.4167,4.5,13.4167,4.26923L13.4167,4.03846C13.4167,3.92308,13.3,3.92308,13.1833,3.92308L13.0667,3.92308L12.7167,4.26923L11.55,5.53846L12.1333,7.26923C12.25,7.5,12.25,7.61538,12.3667,7.73077C12.4833,7.84615,12.4833,7.96154,12.6,7.96154C12.7167,7.96154,12.8333,7.84615,12.95,7.61538C12.8333,7.38461,12.95,7.15385,13.0667,6.92308L13.65,6.92308C13.5333,7.38461,13.3,7.73077,13.1833,8.07692C12.95,8.42308,12.7167,8.53846,12.4833,8.76923C12.25,8.88462,12.0167,9,11.7833,9C11.4333,9,11.2,8.88461,10.9667,8.65385C10.85,8.42308,10.6167,8.07692,10.5,7.61538L10.2667,6.80769L8.86666,8.30769C8.4,8.76923,8.05,9,7.81667,9C7.46667,9,7.23333,8.76923,7.23333,8.30769C7.23333,7.96154,7.35,7.61538,7.46667,7.26923L8.16667,7.26923C8.05,7.61538,7.93333,7.84615,7.93333,7.96154C7.93333,8.07692,7.93333,8.19231,8.05,8.19231C8.16667,8.19231,8.28333,8.07692,8.4,7.96154L10.0333,6.23077L9.68333,5.19231C9.68333,4.96154,9.56666,4.84615,9.56666,4.73077C9.56666,4.61538,9.45,4.61538,9.45,4.5C9.33333,4.5,9.33333,4.38462,9.21667,4.38462C8.98333,4.38462,8.75,4.73077,8.63333,5.30769L8.05,5.30769C8.16666,4.84615,8.4,4.5,8.51666,4.15385C8.63333,3.92308,8.86666,3.69231,9.1,3.57692C9.33333,3.46154,9.56666,3.34615,9.8,3.34615C10.15,3.34615,10.3833,3.46154,10.6167,3.69231C10.85,3.92308,10.9667,4.26923,11.0833,4.73077L11.2,5.07692L12.25,4.03846C12.6,3.69231,12.95,3.46154,13.3,3.46154C13.65,3.46154,13.7667,3.57692,13.8833,3.80769Q14,4.03846,14,4.26923Z" fill="#333333" fill-opacity="1"/></g></svg>